<svg xmlns="http://www.w3.org/2000/svg" xmlns:xlink="http://www.w3.org/1999/xlink" width="198.365" height="65.998" viewBox="0 0 198.365 65.998">
  <defs>
    <linearGradient id="linear-gradient" x1="0.083" y1="-0.235" x2="0.942" y2="1.077" gradientUnits="objectBoundingBox">
      <stop offset="0.143" stop-color="#4ad4fa"/>
      <stop offset="1" stop-color="#8207ff"/>
    </linearGradient>
    <radialGradient id="radial-gradient" cx="1.353" cy="0.463" r="1.118" gradientTransform="matrix(1.177, -0.002, 0.003, 1.324, -0.241, -0.147)" gradientUnits="objectBoundingBox">
      <stop offset="0" stop-color="#5600fb" stop-opacity="0"/>
      <stop offset="0.859" stop-color="#5600fb" stop-opacity="0.859"/>
      <stop offset="1" stop-color="#5600fb"/>
    </radialGradient>
    <radialGradient id="radial-gradient-2" cx="0.438" cy="0.16" r="0.609" gradientTransform="matrix(0.482, 0.738, -0.945, 1.21, 0.377, -0.356)" gradientUnits="objectBoundingBox">
      <stop offset="0.139" stop-color="#5600fb" stop-opacity="0"/>
      <stop offset="0.878" stop-color="#5600fb" stop-opacity="0.859"/>
      <stop offset="1" stop-color="#5600fb"/>
    </radialGradient>
  </defs>
  <g id="Pay-Off-blanco-completo" transform="translate(7.174)">
    <g id="Grupo_23" data-name="Grupo 23" transform="translate(112.649 51.065)">
      <g id="Grupo_22" data-name="Grupo 22">
        <g id="Grupo_21" data-name="Grupo 21">
          <g id="Grupo_8" data-name="Grupo 8" transform="translate(48.562 0.168)">
            <g id="Grupo_7" data-name="Grupo 7">
              <path id="Trazado_65" data-name="Trazado 65" d="M280.166,102.608h-2.059a.2.2,0,0,1-.2-.22l1.705-13.893a.2.2,0,0,1,.2-.174h2.059a.2.2,0,0,1,.2.22l-1.705,13.893A.2.2,0,0,1,280.166,102.608Z" transform="translate(-277.908 -88.32)" fill="#fff"/>
            </g>
          </g>
          <g id="Grupo_10" data-name="Grupo 10" transform="translate(52.305 9.933)">
            <g id="Grupo_9" data-name="Grupo 9">
              <path id="Trazado_66" data-name="Trazado 66" d="M284.372,106.787a.2.2,0,0,1,.07-.226c.278-.209.522-.412.783-.644s.516-.464.766-.708a.2.2,0,0,1,.325.075l.29.824a5.422,5.422,0,0,0,.36.835,1.956,1.956,0,0,0,.4.51,1.342,1.342,0,0,0,.441.273,3.1,3.1,0,0,0,.342.1.2.2,0,0,1,.145.255c-.133.406-.418,1.282-.528,1.607a.194.194,0,0,1-.174.133c-.151.012-.313.017-.493.017a2.382,2.382,0,0,1-.667-.087,1.719,1.719,0,0,1-.545-.273,2.942,2.942,0,0,1-.435-.412,3.519,3.519,0,0,1-.377-.574,7.149,7.149,0,0,1-.325-.679C284.714,107.733,284.482,107.083,284.372,106.787Z" transform="translate(-284.361 -105.153)" fill="#fff"/>
            </g>
          </g>
          <g id="Grupo_12" data-name="Grupo 12" transform="translate(0 4.815)">
            <g id="Grupo_11" data-name="Grupo 11">
              <path id="Trazado_67" data-name="Trazado 67" d="M196.6,103.825a2.393,2.393,0,0,0,1.137.307,1.732,1.732,0,0,0,.876-.2.617.617,0,0,0,.348-.557.568.568,0,0,0-.273-.476,8.162,8.162,0,0,0-1.038-.557c-.133-.064-.238-.116-.313-.151a8.434,8.434,0,0,1-.772-.418,4.58,4.58,0,0,1-.632-.47,3.1,3.1,0,0,1-.5-.545,2.372,2.372,0,0,1-.313-.644,2.52,2.52,0,0,1-.116-.766,2.8,2.8,0,0,1,.458-1.578,3.012,3.012,0,0,1,1.23-1.067,3.809,3.809,0,0,1,1.688-.371,4.95,4.95,0,0,1,1.85.354,3.88,3.88,0,0,1,1.375.922.2.2,0,0,1-.006.278l-1.276,1.253a.192.192,0,0,1-.284-.012,2.192,2.192,0,0,0-.714-.551,2.283,2.283,0,0,0-.934-.232,1.115,1.115,0,0,0-.685.2.65.65,0,0,0-.273.545.748.748,0,0,0,.354.586,6.67,6.67,0,0,0,1.1.644c.191.087.348.168.476.238s.273.151.447.244a3.719,3.719,0,0,1,.429.273c.116.087.244.186.377.3a1.777,1.777,0,0,1,.325.342,3.068,3.068,0,0,1,.238.383,1.915,1.915,0,0,1,.168.452,2.072,2.072,0,0,1,.058.5,2.715,2.715,0,0,1-1,2.257,4.128,4.128,0,0,1-2.692.812,4.974,4.974,0,0,1-2.054-.441,3.756,3.756,0,0,1-1.421-1.038.2.2,0,0,1,.012-.261l1.224-1.241a.2.2,0,0,1,.29.012A2.924,2.924,0,0,0,196.6,103.825Z" transform="translate(-194.193 -96.33)" fill="#fff"/>
            </g>
          </g>
          <g id="Grupo_14" data-name="Grupo 14" transform="translate(8.49 4.826)">
            <g id="Grupo_13" data-name="Grupo 13">
              <path id="Trazado_68" data-name="Trazado 68" d="M216.882,97.388a3.85,3.85,0,0,1,1.1,2.929,8.053,8.053,0,0,1-.2,1.827,5.729,5.729,0,0,1-.632,1.6,5.249,5.249,0,0,1-1.027,1.27,4.287,4.287,0,0,1-1.45.835,5.577,5.577,0,0,1-1.85.3,4.458,4.458,0,0,1-2.106-.47,3.25,3.25,0,0,1-1.386-1.381,4.5,4.5,0,0,1-.493-2.175,7.154,7.154,0,0,1,.22-1.775,5.791,5.791,0,0,1,.661-1.584,5.7,5.7,0,0,1,1.044-1.265,4.321,4.321,0,0,1,1.427-.841,5.038,5.038,0,0,1,1.769-.3A4.05,4.05,0,0,1,216.882,97.388Zm-4.414,1.665a3.04,3.04,0,0,0-.864,1.247,4.328,4.328,0,0,0-.3,1.6,2.259,2.259,0,0,0,.452,1.485,1.455,1.455,0,0,0,1.178.545,2.071,2.071,0,0,0,1.334-.47,2.914,2.914,0,0,0,.893-1.247,4.622,4.622,0,0,0,.307-1.705,2.742,2.742,0,0,0-.116-.824,1.6,1.6,0,0,0-.29-.563,1.541,1.541,0,0,0-.412-.336,1.573,1.573,0,0,0-.452-.174,2.226,2.226,0,0,0-.441-.041A1.9,1.9,0,0,0,212.467,99.053Z" transform="translate(-208.83 -96.35)" fill="#fff"/>
            </g>
          </g>
          <g id="Grupo_16" data-name="Grupo 16" transform="translate(18.827)">
            <g id="Grupo_15" data-name="Grupo 15">
              <path id="Trazado_69" data-name="Trazado 69" d="M231.464,90.223a.917.917,0,0,0-.476.11.961.961,0,0,0-.342.447,3.357,3.357,0,0,0-.22.922l-.162,1.305h1.5a.2.2,0,0,1,.2.22l-.209,1.653a.2.2,0,0,1-.2.174H230l-.888,7.257a.2.2,0,0,1-.2.174h-2.065a.2.2,0,0,1-.2-.22l.882-7.21H226.9a.2.2,0,0,1-.2-.22l.2-1.653a.2.2,0,0,1,.2-.174h.69l.226-1.81a4.044,4.044,0,0,1,.957-2.367,2.7,2.7,0,0,1,2.048-.8,3.629,3.629,0,0,1,2.065.586.2.2,0,0,1,.075.226l-.5,1.549a.2.2,0,0,1-.284.11A1.777,1.777,0,0,0,231.464,90.223Z" transform="translate(-226.648 -88.03)" fill="#fff"/>
            </g>
          </g>
          <g id="Grupo_18" data-name="Grupo 18" transform="translate(25.643 1.662)">
            <g id="Grupo_17" data-name="Grupo 17">
              <path id="Trazado_70" data-name="Trazado 70" d="M243.376,103.051a.2.2,0,0,1-.1.209,4.779,4.779,0,0,1-2.338.592,2.088,2.088,0,0,1-1.758-.743,2.829,2.829,0,0,1-.4-2.135l.568-4.71H238.6a.2.2,0,0,1-.2-.22l.2-1.653a.2.2,0,0,1,.2-.174h.818l.342-2.738a.2.2,0,0,1,.157-.168l2.106-.412a.2.2,0,0,1,.232.215l-.383,3.1h1.949a.2.2,0,0,1,.2.22l-.2,1.653a.2.2,0,0,1-.2.174h-2l-.522,4.322q-.122.975.539.975a2.266,2.266,0,0,0,.951-.278.2.2,0,0,1,.278.139Z" transform="translate(-238.398 -90.895)" fill="#fff"/>
            </g>
          </g>
          <path id="Trazado_71" data-name="Trazado 71" d="M268.11,107.02" transform="translate(-225.232 -96.004)" fill="none"/>
          <path id="Trazado_72" data-name="Trazado 72" d="M261.55,104.88" transform="translate(-222.477 -95.106)" fill="#fff"/>
          <g id="Grupo_20" data-name="Grupo 20" transform="translate(32.006 4.79)">
            <g id="Grupo_19" data-name="Grupo 19">
              <path id="Trazado_73" data-name="Trazado 73" d="M255.356,96.347a3.174,3.174,0,0,0-.615.151h-.006a4.214,4.214,0,0,0-1.937,1.56h-.017l.168-1.363a.2.2,0,0,0-.2-.22h-2.065a.2.2,0,0,0-.2.174l-1.12,9.084a.2.2,0,0,0,.2.22h2.065a.2.2,0,0,0,.2-.174l.406-3.277a5,5,0,0,1,1.073-2.784,1.994,1.994,0,0,1,1.955-.667.194.194,0,0,0,.22-.128,6.447,6.447,0,0,1,1.334-2.257.2.2,0,0,0-.116-.331A4.286,4.286,0,0,0,255.356,96.347Z" transform="translate(-249.368 -96.288)" fill="#fff"/>
            </g>
          </g>
          <path id="Trazado_74" data-name="Trazado 74" d="M277.687,96.489a.2.2,0,0,0-.18.116c-.052.116-.133.3-.18.4a11.89,11.89,0,0,1-5.053,5.528,11.73,11.73,0,0,1-6.01,1.6,2.821,2.821,0,0,1-1.8-.69,2.057,2.057,0,0,1-.447-.7c.487-.07.946-.151,1.381-.255.452-.1.9-.232,1.334-.377a6.23,6.23,0,0,0,1.172-.534,5.188,5.188,0,0,0,.917-.69,2.736,2.736,0,0,0,.615-.87,2.581,2.581,0,0,0,.22-1.05,2.457,2.457,0,0,0-.261-1.143,2.272,2.272,0,0,0-.708-.824,3.4,3.4,0,0,0-1-.487,4.027,4.027,0,0,0-1.154-.168,5,5,0,0,0-1.758.307,4.319,4.319,0,0,0-1.421.853,5.659,5.659,0,0,0-1.033,1.27,5.834,5.834,0,0,0-.65,1.589,7.235,7.235,0,0,0-.22,1.781,4,4,0,0,0,1.044,2.935s1.265,1.584,4.478,1.346a14.525,14.525,0,0,0,10.053-4.745,14.282,14.282,0,0,0,2.732-4.432c.052-.128.128-.325.186-.487a.2.2,0,0,0-.186-.267h-2.071ZM267.019,98.67a.568.568,0,0,1,.22.476c0,.864-1.166,1.468-3.33,1.781a3.216,3.216,0,0,1,1.694-2.268,1.913,1.913,0,0,1,.777-.168A1.057,1.057,0,0,1,267.019,98.67Z" transform="translate(-222.435 -91.524)" fill="url(#linear-gradient)"/>
          <path id="Trazado_75" data-name="Trazado 75" d="M267.34,105.6a13.473,13.473,0,0,1-1.578.3,2.934,2.934,0,0,1-.162-1.027,4.4,4.4,0,0,1,.052-.789s.6-.081,1.207-.232" transform="translate(-224.178 -94.673)" opacity="0.5" fill="url(#radial-gradient)"/>
          <path id="Trazado_76" data-name="Trazado 76" d="M276.41,103.6c7.106-1.073,9.357-5.6,9.815-6.752a.2.2,0,0,0-.186-.273h-2.077a.2.2,0,0,0-.18.116c-.052.116-.133.3-.18.4a12.431,12.431,0,0,1-7.193,6.509Z" transform="translate(-228.717 -91.62)" opacity="0.5" fill="url(#radial-gradient-2)"/>
        </g>
      </g>
    </g>
    <g id="Grupo_1739" data-name="Grupo 1739" transform="translate(-154.554 -282.086)">
      <path id="Trazado_1845" data-name="Trazado 1845" d="M394.185,291.564c.058.234.109.469.15.7a27.854,27.854,0,0,1-.235,10.242c-1.046,5.182-3.417,10.544-7.568,13.993a15.983,15.983,0,0,1-3.565,2.25,17.813,17.813,0,0,1-4.009,1.274,19.1,19.1,0,0,1-4.787.034,12.134,12.134,0,0,1-4.262-1.086,9.8,9.8,0,0,1-5.013-6.07,22.4,22.4,0,0,1-.854-4.427,36.68,36.68,0,0,1-.231-6.486,24.986,24.986,0,0,1,3-10.07c3.311-6,10.234-10.829,17.348-9.657a13.276,13.276,0,0,1,9.131,6.881A11.761,11.761,0,0,1,394.185,291.564Zm-23.57,12.117a20.778,20.778,0,0,0,.264,5.4,6.265,6.265,0,0,0,3.156,4.415c2.516,1.414,6.3.251,8.154-1.67,5.1-5.3,6.093-11.82,5.112-18.735-.422-2.969-2.412-4.451-5.2-4.662-3.4-.256-5.9,1.386-7.793,4.021A19.59,19.59,0,0,0,370.616,303.681Z" transform="translate(-76.253)" fill="#fff" fill-rule="evenodd"/>
      <path id="Trazado_1846" data-name="Trazado 1846" d="M162.973,320.323a14.735,14.735,0,0,1-10.408-2.8c-1.645-1.288-2.376-3.132-3.264-4.963a19.065,19.065,0,0,1-1.6-4.723,21.819,21.819,0,0,1,.742-10.3c1.724-5.758,5.282-11.451,11.087-13.725a24.711,24.711,0,0,1,13.662-1.037c2.759.473,3.016.821,1.809,3.283a6.915,6.915,0,0,0-.35.9c-.536,1.648-1.09,1.555-2.634,1.38a27.284,27.284,0,0,0-3-.364,14.728,14.728,0,0,0-4.808.727,13.992,13.992,0,0,0-7.683,7.016c-2.758,5.346-3.633,15.263,3.2,18.08a10.1,10.1,0,0,0,4.613.589c1.3-.1,2.586-.565,3.872-.765,2.254-.351,1.26,1.794,1.355,3.413,0,.054,0,.108,0,.162a1.447,1.447,0,0,1-.93,1.486A15.41,15.41,0,0,1,162.973,320.323Z" transform="translate(0 -0.069)" fill="#fff" fill-rule="evenodd"/>
      <path id="Trazado_1847" data-name="Trazado 1847" d="M194.876,326.025a5.638,5.638,0,0,1-5.087-3.72,19.193,19.193,0,0,1-.583-6.348,19.727,19.727,0,0,1,1.339-6.814c1.557-4.065,4.264-7.874,8.507-9.366,4.336-1.526,8.747-1.312,13.189-.441.695.136,1.495.5,1.267,1.526-.5,2.24-1.1,4.457-1.551,6.708-.415,2.076-1.045,4.148-1.361,6.235-.3,1.984-.734,3.975-.909,5.974-.118,1.354-.1,2.715-.093,4.073,0,.63.126,1.274-.837,1.436-1.2.2-2.485.295-3.226-.839-.468-.716-.389-2.8-1.443-2.987-.875-.155-1.263,1.394-1.763,1.864a10.73,10.73,0,0,1-2.594,1.4,11.834,11.834,0,0,1-3.8,1.264A6.078,6.078,0,0,1,194.876,326.025Zm.7-10.129a18.412,18.412,0,0,0,.017,2.422,2.925,2.925,0,0,0,4.145,2.478,7.555,7.555,0,0,0,4.429-4.863c.9-3.365,1.4-6.836,2.13-10.251.274-1.285-.344-1.761-1.446-2.015-2.268-.525-4.95.684-6.6,3.117A15.777,15.777,0,0,0,195.576,315.9Z" transform="translate(-14.735 -5.84)" fill="#fff" fill-rule="evenodd"/>
      <path id="Trazado_1848" data-name="Trazado 1848" d="M295.969,326.055a9.671,9.671,0,0,0,.205-3.051,25.389,25.389,0,0,0-.539-3.147c-.649-3-1.278-6-1.923-9-.682-3.17-1.107-6.395-1.732-9.577-.249-1.265.087-1.926,1.555-1.786a23.033,23.033,0,0,0,3.716.005c1.083-.073,1.522.287,1.613,1.405.318,3.9.913,7.775,1.206,11.676.067.888.124,1.779.239,2.662.056.432.078,1.318.43,1.645.694.646,1.51-1.678,1.684-2.077.879-2.022,1.7-4.036,2.689-6.009.824-1.647,1.633-3.3,2.448-4.955.453-.919.858-1.861,1.322-2.775.306-.6.614-1.568,1.423-1.556,1.817.027,3.635.01,5.621.01-.356.84-.577,1.5-.9,2.1-3.686,6.891-7.353,13.794-11.1,20.652-2.129,3.9-4,7.953-6.967,11.345a7.093,7.093,0,0,1-7.636,2.455c-.629-.193-.977-.446-.768-1.119.333-1.076.661-2.154,1.063-3.205a1.4,1.4,0,0,1,1.277-.832A5.9,5.9,0,0,0,295.969,326.055Z" transform="translate(-49.734 -6.129)" fill="#fff" fill-rule="evenodd"/>
      <path id="Trazado_1849" data-name="Trazado 1849" d="M419.653,302.769a13.694,13.694,0,0,1,.315-1.613c.2-.763.273-1.712,1.134-1.926a6,6,0,0,1,3.42.111c.747.3.244,1.367.327,2.087.071.617-.353,1.506.277,1.79.713.322,1.109-.59,1.608-1.013.326-.276.614-.6.936-.875,2.506-2.176,6.667-3.839,9.911-2.243a4.778,4.778,0,0,1,1.972,1.772c.818,1.619.585,3.637.328,5.365-.534,3.592-1.355,7.142-2.179,10.676-.493,2.114-.642,4.31-1.188,6.408a2.068,2.068,0,0,1-1.7,1.781,11.979,11.979,0,0,1-2.594.1c-.27,0-.541-.022-.809,0-1.067.1-1.5-.308-1.259-1.411q1.12-5.112,2.187-10.234a56.179,56.179,0,0,0,1.214-6.48c.235-2.72-1.843-3.983-4.267-2.676a10.048,10.048,0,0,0-5.225,6.651c-.811,3.393-1.418,6.836-2.051,10.27-.714,3.875-.683,3.881-4.572,3.878-.638,0-1.878.154-2.193-.582-.208-.486.1-1.359.185-1.85.346-2.064.945-4.071,1.375-6.119.887-4.209,2.118-8.411,2.691-12.674C419.546,303.564,419.6,303.165,419.653,302.769Z" transform="translate(-94.377 -5.768)" fill="#fff" fill-rule="evenodd"/>
      <path id="Trazado_1850" data-name="Trazado 1850" d="M235.255,306.93c.22-1.111.425-2.224.606-3.341.159-.989.091-2.809.836-3.594.642-.678,1.914-.6,2.769-.631,1.383-.043,1.783.447,1.743,1.756-.025.795-.49,2.045.4,2.31.7.208,1.3-.956,1.8-1.628a6.4,6.4,0,0,1,6.213-2.624c.892.092,1.346.3,1.146,1.406-.186,1.025-.712,1.923-.86,2.932-.129.89-.528,1.076-1.427.991a7.584,7.584,0,0,0-7.594,4.834c-1.517,4.7-2.117,9.638-3.2,14.454-.286,1.276-.679,1.8-1.947,1.633a8.669,8.669,0,0,0-1.132-.006c-2.262,0-3.508-.2-2.962-2.729.527-2.445,1.258-4.845,1.778-7.293C234.034,312.579,234.694,309.763,235.255,306.93Z" transform="translate(-29.657 -6.007)" fill="#fff" fill-rule="evenodd"/>
      <path id="Trazado_1851" data-name="Trazado 1851" d="M265.248,306.93c.22-1.111.425-2.224.605-3.341.16-.989.092-2.809.836-3.594.643-.678,1.914-.6,2.77-.631,1.383-.043,1.783.447,1.742,1.756-.025.795-.489,2.045.4,2.31.7.208,1.3-.956,1.8-1.628a6.4,6.4,0,0,1,6.213-2.624c.892.092,1.346.3,1.146,1.406-.186,1.025-.712,1.923-.86,2.932-.13.89-.528,1.076-1.427.991a7.585,7.585,0,0,0-7.595,4.834c-1.516,4.7-2.116,9.638-3.2,14.454-.286,1.276-.68,1.8-1.947,1.633a8.678,8.678,0,0,0-1.133-.006c-2.261,0-3.507-.2-2.961-2.729.526-2.445,1.258-4.845,1.778-7.293C264.027,312.579,264.687,309.763,265.248,306.93Z" transform="translate(-40.227 -6.007)" fill="#fff" fill-rule="evenodd"/>
      <path id="Trazado_1852" data-name="Trazado 1852" d="M346.461,315.978a2.563,2.563,0,0,1-.575,1.3c-1.291,1.311-4.346.62-5.972.6a42.625,42.625,0,0,1-5.518-.008c-.752-.107-.754-.64-.657-1.258.249-1.6.154-3.868,2.286-3.852q4.686.035,9.371,0c.7,0,1.179.194,1.2.928A10.974,10.974,0,0,1,346.461,315.978Z" transform="translate(-65.663 -10.811)" fill="#fff" fill-rule="evenodd"/>
    </g>
  </g>
</svg>
