<svg xmlns="http://www.w3.org/2000/svg" width="198.365" height="48.176" viewBox="0 0 198.365 48.176">
  <g id="Grupo_1739" data-name="Grupo 1739" transform="translate(-147.38 -282.086)">
    <path id="Trazado_1845" data-name="Trazado 1845" d="M394.185,291.564c.058.234.109.469.15.7a27.854,27.854,0,0,1-.235,10.242c-1.046,5.182-3.417,10.544-7.568,13.993a15.983,15.983,0,0,1-3.565,2.25,17.813,17.813,0,0,1-4.009,1.274,19.1,19.1,0,0,1-4.787.034,12.134,12.134,0,0,1-4.262-1.086,9.8,9.8,0,0,1-5.013-6.07,22.4,22.4,0,0,1-.854-4.427,36.68,36.68,0,0,1-.231-6.486,24.986,24.986,0,0,1,3-10.07c3.311-6,10.234-10.829,17.348-9.657a13.276,13.276,0,0,1,9.131,6.881A11.761,11.761,0,0,1,394.185,291.564Zm-23.57,12.117a20.778,20.778,0,0,0,.264,5.4,6.265,6.265,0,0,0,3.156,4.415c2.516,1.414,6.3.251,8.154-1.67,5.1-5.3,6.093-11.82,5.112-18.735-.422-2.969-2.412-4.451-5.2-4.662-3.4-.256-5.9,1.386-7.793,4.021A19.59,19.59,0,0,0,370.616,303.681Z" transform="translate(-76.253)" fill="#fff" fill-rule="evenodd"/>
    <path id="Trazado_1846" data-name="Trazado 1846" d="M162.973,320.323a14.735,14.735,0,0,1-10.408-2.8c-1.645-1.288-2.376-3.132-3.264-4.963a19.065,19.065,0,0,1-1.6-4.723,21.819,21.819,0,0,1,.742-10.3c1.724-5.758,5.282-11.451,11.087-13.725a24.711,24.711,0,0,1,13.662-1.037c2.759.473,3.016.821,1.809,3.283a6.915,6.915,0,0,0-.35.9c-.536,1.648-1.09,1.555-2.634,1.38a27.284,27.284,0,0,0-3-.364,14.728,14.728,0,0,0-4.808.727,13.992,13.992,0,0,0-7.683,7.016c-2.758,5.346-3.633,15.263,3.2,18.08a10.1,10.1,0,0,0,4.613.589c1.3-.1,2.586-.565,3.872-.765,2.254-.351,1.26,1.794,1.355,3.413,0,.054,0,.108,0,.162a1.447,1.447,0,0,1-.93,1.486A15.41,15.41,0,0,1,162.973,320.323Z" transform="translate(0 -0.069)" fill="#fff" fill-rule="evenodd"/>
    <path id="Trazado_1847" data-name="Trazado 1847" d="M194.876,326.025a5.638,5.638,0,0,1-5.087-3.72,19.193,19.193,0,0,1-.583-6.348,19.727,19.727,0,0,1,1.339-6.814c1.557-4.065,4.264-7.874,8.507-9.366,4.336-1.526,8.747-1.312,13.189-.441.695.136,1.495.5,1.267,1.526-.5,2.24-1.1,4.457-1.551,6.708-.415,2.076-1.045,4.148-1.361,6.235-.3,1.984-.734,3.975-.909,5.974-.118,1.354-.1,2.715-.093,4.073,0,.63.126,1.274-.837,1.436-1.2.2-2.485.295-3.226-.839-.468-.716-.389-2.8-1.443-2.987-.875-.155-1.263,1.394-1.763,1.864a10.73,10.73,0,0,1-2.594,1.4,11.834,11.834,0,0,1-3.8,1.264A6.078,6.078,0,0,1,194.876,326.025Zm.7-10.129a18.412,18.412,0,0,0,.017,2.422,2.925,2.925,0,0,0,4.145,2.478,7.555,7.555,0,0,0,4.429-4.863c.9-3.365,1.4-6.836,2.13-10.251.274-1.285-.344-1.761-1.446-2.015-2.268-.525-4.95.684-6.6,3.117A15.777,15.777,0,0,0,195.576,315.9Z" transform="translate(-14.735 -5.84)" fill="#fff" fill-rule="evenodd"/>
    <path id="Trazado_1848" data-name="Trazado 1848" d="M295.969,326.055a9.671,9.671,0,0,0,.205-3.051,25.389,25.389,0,0,0-.539-3.147c-.649-3-1.278-6-1.923-9-.682-3.17-1.107-6.395-1.732-9.577-.249-1.265.087-1.926,1.555-1.786a23.033,23.033,0,0,0,3.716.005c1.083-.073,1.522.287,1.613,1.405.318,3.9.913,7.775,1.206,11.676.067.888.124,1.779.239,2.662.056.432.078,1.318.43,1.645.694.646,1.51-1.678,1.684-2.077.879-2.022,1.7-4.036,2.689-6.009.824-1.647,1.633-3.3,2.448-4.955.453-.919.858-1.861,1.322-2.775.306-.6.614-1.568,1.423-1.556,1.817.027,3.635.01,5.621.01-.356.84-.577,1.5-.9,2.1-3.686,6.891-7.353,13.794-11.1,20.652-2.129,3.9-4,7.953-6.967,11.345a7.093,7.093,0,0,1-7.636,2.455c-.629-.193-.977-.446-.768-1.119.333-1.076.661-2.154,1.063-3.205a1.4,1.4,0,0,1,1.277-.832A5.9,5.9,0,0,0,295.969,326.055Z" transform="translate(-49.734 -6.129)" fill="#fff" fill-rule="evenodd"/>
    <path id="Trazado_1849" data-name="Trazado 1849" d="M419.653,302.769a13.694,13.694,0,0,1,.315-1.613c.2-.763.273-1.712,1.134-1.926a6,6,0,0,1,3.42.111c.747.3.244,1.367.327,2.087.071.617-.353,1.506.277,1.79.713.322,1.109-.59,1.608-1.013.326-.276.614-.6.936-.875,2.506-2.176,6.667-3.839,9.911-2.243a4.778,4.778,0,0,1,1.972,1.772c.818,1.619.585,3.637.328,5.365-.534,3.592-1.355,7.142-2.179,10.676-.493,2.114-.642,4.31-1.188,6.408a2.068,2.068,0,0,1-1.7,1.781,11.979,11.979,0,0,1-2.594.1c-.27,0-.541-.022-.809,0-1.067.1-1.5-.308-1.259-1.411q1.12-5.112,2.187-10.234a56.179,56.179,0,0,0,1.214-6.48c.235-2.72-1.843-3.983-4.267-2.676a10.048,10.048,0,0,0-5.225,6.651c-.811,3.393-1.418,6.836-2.051,10.27-.714,3.875-.683,3.881-4.572,3.878-.638,0-1.878.154-2.193-.582-.208-.486.1-1.359.185-1.85.346-2.064.945-4.071,1.375-6.119.887-4.209,2.118-8.411,2.691-12.674C419.546,303.564,419.6,303.165,419.653,302.769Z" transform="translate(-94.377 -5.768)" fill="#fff" fill-rule="evenodd"/>
    <path id="Trazado_1850" data-name="Trazado 1850" d="M235.255,306.93c.22-1.111.425-2.224.606-3.341.159-.989.091-2.809.836-3.594.642-.678,1.914-.6,2.769-.631,1.383-.043,1.783.447,1.743,1.756-.025.795-.49,2.045.4,2.31.7.208,1.3-.956,1.8-1.628a6.4,6.4,0,0,1,6.213-2.624c.892.092,1.346.3,1.146,1.406-.186,1.025-.712,1.923-.86,2.932-.129.89-.528,1.076-1.427.991a7.584,7.584,0,0,0-7.594,4.834c-1.517,4.7-2.117,9.638-3.2,14.454-.286,1.276-.679,1.8-1.947,1.633a8.669,8.669,0,0,0-1.132-.006c-2.262,0-3.508-.2-2.962-2.729.527-2.445,1.258-4.845,1.778-7.293C234.034,312.579,234.694,309.763,235.255,306.93Z" transform="translate(-29.657 -6.007)" fill="#fff" fill-rule="evenodd"/>
    <path id="Trazado_1851" data-name="Trazado 1851" d="M265.248,306.93c.22-1.111.425-2.224.605-3.341.16-.989.092-2.809.836-3.594.643-.678,1.914-.6,2.77-.631,1.383-.043,1.783.447,1.742,1.756-.025.795-.489,2.045.4,2.31.7.208,1.3-.956,1.8-1.628a6.4,6.4,0,0,1,6.213-2.624c.892.092,1.346.3,1.146,1.406-.186,1.025-.712,1.923-.86,2.932-.13.89-.528,1.076-1.427.991a7.585,7.585,0,0,0-7.595,4.834c-1.516,4.7-2.116,9.638-3.2,14.454-.286,1.276-.68,1.8-1.947,1.633a8.678,8.678,0,0,0-1.133-.006c-2.261,0-3.507-.2-2.961-2.729.526-2.445,1.258-4.845,1.778-7.293C264.027,312.579,264.687,309.763,265.248,306.93Z" transform="translate(-40.227 -6.007)" fill="#fff" fill-rule="evenodd"/>
    <path id="Trazado_1852" data-name="Trazado 1852" d="M346.461,315.978a2.563,2.563,0,0,1-.575,1.3c-1.291,1.311-4.346.62-5.972.6a42.625,42.625,0,0,1-5.518-.008c-.752-.107-.754-.64-.657-1.258.249-1.6.154-3.868,2.286-3.852q4.686.035,9.371,0c.7,0,1.179.194,1.2.928A10.974,10.974,0,0,1,346.461,315.978Z" transform="translate(-65.663 -10.811)" fill="#fff" fill-rule="evenodd"/>
  </g>
</svg>
